<svg xmlns="http://www.w3.org/2000/svg" width="780" height="528" viewBox="0 0 780 528" font-family="system-ui,Segoe UI,Arial,sans-serif">
<rect x="0" y="0" width="780" height="528" rx="12" fill="#ffffff" stroke="#E5E7EB"/>
<text x="24" y="34" font-size="19" font-weight="700" fill="#111827">Vision-language benchmarks (higher is better)</text>
<rect x="24" y="52" width="13" height="13" rx="3" fill="#4C6FFF"/>
<text x="43" y="63" font-size="12" fill="#374151">Qwen3.8-27B</text>
<rect x="143.2" y="52" width="13" height="13" rx="3" fill="#9AA7BD"/>
<text x="162.2" y="63" font-size="12" fill="#374151">Qwen3.6-27B</text>
<rect x="262.4" y="52" width="13" height="13" rx="3" fill="#F0883E"/>
<text x="281.4" y="63" font-size="12" fill="#374151">Opus4.6 Max</text>
<line x1="200.0" y1="88" x2="200.0" y2="504" stroke="#EEF0F3"/>
<text x="200.0" y="520" font-size="11" fill="#9AA7BD" text-anchor="middle">0</text>
<line x1="334.0" y1="88" x2="334.0" y2="504" stroke="#EEF0F3"/>
<text x="334.0" y="520" font-size="11" fill="#9AA7BD" text-anchor="middle">25</text>
<line x1="468.0" y1="88" x2="468.0" y2="504" stroke="#EEF0F3"/>
<text x="468.0" y="520" font-size="11" fill="#9AA7BD" text-anchor="middle">50</text>
<line x1="602.0" y1="88" x2="602.0" y2="504" stroke="#EEF0F3"/>
<text x="602.0" y="520" font-size="11" fill="#9AA7BD" text-anchor="middle">75</text>
<line x1="736.0" y1="88" x2="736.0" y2="504" stroke="#EEF0F3"/>
<text x="736.0" y="520" font-size="11" fill="#9AA7BD" text-anchor="middle">100</text>
<text x="188" y="122.5" font-size="13" fill="#111827" text-anchor="end">OSWorld-Verified</text>
<rect x="200" y="96" width="451.8" height="13" rx="2.5" fill="#4C6FFF"/>
<text x="656.8" y="106.5" font-size="11" fill="#374151">84.3</text>
<rect x="200" y="112" width="342.5" height="13" rx="2.5" fill="#9AA7BD"/>
<text x="547.5" y="122.5" font-size="11" fill="#374151">63.9</text>
<rect x="200" y="128" width="389.7" height="13" rx="2.5" fill="#F0883E"/>
<text x="594.7" y="138.5" font-size="11" fill="#374151">72.7</text>
<text x="188" y="189.5" font-size="13" fill="#111827" text-anchor="end">AndroidWorld</text>
<rect x="200" y="163" width="439.0" height="13" rx="2.5" fill="#4C6FFF"/>
<text x="644.0" y="173.5" font-size="11" fill="#374151">81.9</text>
<rect x="200" y="179" width="376.8" height="13" rx="2.5" fill="#9AA7BD"/>
<text x="581.8" y="189.5" font-size="11" fill="#374151">70.3</text>
<rect x="200" y="195" width="332.3" height="13" rx="2.5" fill="#F0883E"/>
<text x="537.3" y="205.5" font-size="11" fill="#374151">62</text>
<text x="188" y="256.5" font-size="13" fill="#111827" text-anchor="end">MathVision</text>
<rect x="200" y="230" width="482.4" height="13" rx="2.5" fill="#4C6FFF"/>
<text x="687.4" y="240.5" font-size="11" fill="#374151">90</text>
<rect x="200" y="246" width="456.1" height="13" rx="2.5" fill="#9AA7BD"/>
<text x="661.1" y="256.5" font-size="11" fill="#374151">85.1</text>
<rect x="200" y="262" width="351.1" height="13" rx="2.5" fill="#F0883E"/>
<text x="556.1" y="272.5" font-size="11" fill="#374151">65.5</text>
<text x="188" y="323.5" font-size="13" fill="#111827" text-anchor="end">CharXiv (RQ)</text>
<rect x="200" y="297" width="448.6" height="13" rx="2.5" fill="#4C6FFF"/>
<text x="653.6" y="307.5" font-size="11" fill="#374151">83.7</text>
<rect x="200" y="313" width="420.2" height="13" rx="2.5" fill="#9AA7BD"/>
<text x="625.2" y="323.5" font-size="11" fill="#374151">78.4</text>
<rect x="200" y="329" width="353.8" height="13" rx="2.5" fill="#F0883E"/>
<text x="558.8" y="339.5" font-size="11" fill="#374151">66</text>
<text x="188" y="390.5" font-size="13" fill="#111827" text-anchor="end">RealWorldQA</text>
<rect x="200" y="364" width="460.4" height="13" rx="2.5" fill="#4C6FFF"/>
<text x="665.4" y="374.5" font-size="11" fill="#374151">85.9</text>
<rect x="200" y="380" width="450.8" height="13" rx="2.5" fill="#9AA7BD"/>
<text x="655.8" y="390.5" font-size="11" fill="#374151">84.1</text>
<rect x="200" y="396" width="396.1" height="13" rx="2.5" fill="#F0883E"/>
<text x="601.1" y="406.5" font-size="11" fill="#374151">73.9</text>
<text x="188" y="457.5" font-size="13" fill="#111827" text-anchor="end">OmniDocBench 1.5</text>
<rect x="200" y="431" width="488.3" height="13" rx="2.5" fill="#4C6FFF"/>
<text x="693.3" y="441.5" font-size="11" fill="#374151">91.1</text>
<rect x="200" y="447" width="479.2" height="13" rx="2.5" fill="#9AA7BD"/>
<text x="684.2" y="457.5" font-size="11" fill="#374151">89.4</text>
<rect x="200" y="463" width="464.2" height="13" rx="2.5" fill="#F0883E"/>
<text x="669.2" y="473.5" font-size="11" fill="#374151">86.6</text>
</svg>